<?xml version="1.0" encoding="utf-8"?>
<!-- Generator: Adobe Illustrator 26.0.1, SVG Export Plug-In . SVG Version: 6.00 Build 0)  -->
<svg version="1.1" id="Layer_1" xmlns="http://www.w3.org/2000/svg" xmlns:xlink="http://www.w3.org/1999/xlink" x="0px" y="0px"
	 viewBox="0 0 64 64" style="enable-background:new 0 0 64 64;" xml:space="preserve">
<style type="text/css">
	.st0{fill:#D11F5C;}
</style>
<g id="Raven_Icon_00000154392837372173084110000017580853356362056345_">
	<g>
		<rect x="14.8" y="23.8" class="st0" width="2.1" height="2.2"/>
		<rect x="15.1" y="27.7" class="st0" width="2" height="2.1"/>
		<rect x="22" y="28.7" class="st0" width="2.2" height="2.4"/>
		<rect x="4.2" y="24.8" class="st0" width="1.7" height="1.8"/>
		<polygon class="st0" points="23.3,23.5 20.8,23.5 20.8,24.7 19,24.7 19,27 21.2,27 21.2,26.2 23.3,26.2 		"/>
		<rect x="24.9" y="32.6" class="st0" width="2.1" height="2.2"/>
		<rect x="18.4" y="31.4" class="st0" width="1.8" height="1.9"/>
		<rect x="11.4" y="22.7" class="st0" width="1.7" height="1.8"/>
		<rect x="9.8" y="26" class="st0" width="1.9" height="2"/>
		<rect x="27.2" y="29.6" class="st0" width="1.3" height="1.4"/>
		<rect x="5.9" y="28.1" class="st0" width="1.2" height="1.3"/>
		<polygon class="st0" points="18.9,22.1 18.9,20.8 17.9,20.8 17.9,19.6 16.5,19.6 16.5,21.2 17.7,21.2 17.7,22.1 		"/>
		<rect x="7.7" y="22.5" class="st0" width="1.2" height="1.3"/>
		<rect x="12.3" y="30.5" class="st0" width="1.2" height="1.3"/>
		<rect x="10.5" y="18.7" class="st0" width="1.2" height="1.3"/>
		<g>
			<path class="st0" d="M15.4,17.2c3.1,1.5,5.4,3.3,6.5,4.3h1.6v0.8h1.7v2.5h2V26h-2.3v2.6h2.4v-1.7h0.6v0.9h1.4v2.7h1v2.4h-0.7v0.8
				h-0.5c1.4,4.5,2,9.5,2,9.5C32.3,41,37.9,19,15.4,17.2"/>
			<path class="st0" d="M53.8,27.4c-2.3-2.6-4.8-3.3-6.5-3.6c-3-0.6-6,0-7.6,0.4c-5.3-7-17-7.2-17-7.2c4,1.3,6.7,3.2,8.5,5.3
				l1.4-0.1l-0.8,0.8c0.2,0.3,0.5,0.7,0.7,1l2.3-0.4l-1.6,1.7c3.9,13.3-2.9,21.5-2.9,21.5c5.5-1.9,13-10.2,18.9-13.3
				c5.7-3,11-0.1,10.7-1.2C59.1,30.2,53.8,27.4,53.8,27.4 M50.4,28.2c-0.5,0-1.2-0.2-1.8-0.8c-0.5-0.5-0.3-0.7,0.2-0.7
				c0.7,0,1.9,0.5,2.9,1.4C51.7,28.1,51.2,28.2,50.4,28.2"/>
		</g>
	</g>
</g>
</svg>
